<svg xmlns="http://www.w3.org/2000/svg" width="1540" height="1080" viewBox="0 0 1540 1080">
<rect width="100%" height="100%" fill="#ffffff"/>
<text x="770.0" y="43.0" text-anchor="middle" font-family="Arial" font-size="39" font-weight="bold" fill="#20242a">Earthquake and icequake records at the nine common receiving stations</text>
<rect x="110" y="140" width="1030" height="830" fill="#f8fafc" stroke="#20242a" stroke-width="1.5"/>
<line x1="110.0" y1="140" x2="110.0" y2="970" stroke="#d9dde3" stroke-width="1"/>
<text x="110.0" y="999.0" text-anchor="middle" font-family="Arial" font-size="21" fill="#4b5563">149°W</text>
<line x1="316.0" y1="140" x2="316.0" y2="970" stroke="#d9dde3" stroke-width="1"/>
<text x="316.0" y="999.0" text-anchor="middle" font-family="Arial" font-size="21" fill="#4b5563">148°W</text>
<line x1="522.0" y1="140" x2="522.0" y2="970" stroke="#d9dde3" stroke-width="1"/>
<text x="522.0" y="999.0" text-anchor="middle" font-family="Arial" font-size="21" fill="#4b5563">147°W</text>
<line x1="728.0" y1="140" x2="728.0" y2="970" stroke="#d9dde3" stroke-width="1"/>
<text x="728.0" y="999.0" text-anchor="middle" font-family="Arial" font-size="21" fill="#4b5563">146°W</text>
<line x1="934.0" y1="140" x2="934.0" y2="970" stroke="#d9dde3" stroke-width="1"/>
<text x="934.0" y="999.0" text-anchor="middle" font-family="Arial" font-size="21" fill="#4b5563">145°W</text>
<line x1="1140.0" y1="140" x2="1140.0" y2="970" stroke="#d9dde3" stroke-width="1"/>
<text x="1140.0" y="999.0" text-anchor="middle" font-family="Arial" font-size="21" fill="#4b5563">144°W</text>
<line x1="110" y1="970.0" x2="1140" y2="970.0" stroke="#d9dde3" stroke-width="1"/>
<text x="95.0" y="975.0" text-anchor="end" font-family="Arial" font-size="21" fill="#4b5563">60°N</text>
<line x1="110" y1="762.5" x2="1140" y2="762.5" stroke="#d9dde3" stroke-width="1"/>
<text x="95.0" y="767.5" text-anchor="end" font-family="Arial" font-size="21" fill="#4b5563">60.5°N</text>
<line x1="110" y1="555.0" x2="1140" y2="555.0" stroke="#d9dde3" stroke-width="1"/>
<text x="95.0" y="560.0" text-anchor="end" font-family="Arial" font-size="21" fill="#4b5563">61°N</text>
<line x1="110" y1="347.5" x2="1140" y2="347.5" stroke="#d9dde3" stroke-width="1"/>
<text x="95.0" y="352.5" text-anchor="end" font-family="Arial" font-size="21" fill="#4b5563">61.5°N</text>
<line x1="110" y1="140.0" x2="1140" y2="140.0" stroke="#d9dde3" stroke-width="1"/>
<text x="95.0" y="145.0" text-anchor="end" font-family="Arial" font-size="21" fill="#4b5563">62°N</text>
<polygon points="543.6,448.8 547.4,458.6 557.8,459.2 549.8,465.8 552.4,476.0 543.6,470.3 534.8,476.0 537.4,465.8 529.3,459.2 539.8,458.6" fill="#d9a400" stroke="#20242a" stroke-width="1.4"/>
<text x="564.6" y="468.8" font-family="Arial" font-size="21" font-weight="bold" fill="#20242a">Columbia Glacier</text>
<circle cx="281.7" cy="500.3" r="15.3" fill="#2ca25f" fill-opacity="0.86" stroke="#20242a" stroke-width="1.1"/>
<circle cx="299.4" cy="500.3" r="12.6" fill="#2b6cb0" fill-opacity="0.86" stroke="#20242a" stroke-width="1.1"/>
<polygon points="290.6,493.3 297.6,500.3 290.6,507.3 283.6,500.3" fill="#d7301f" stroke="#ffffff" stroke-width="1.2"/>
<text x="202.6" y="445.3" font-family="Arial" font-size="22.5" font-weight="bold" fill="#20242a">BAE</text>
<text x="202.6" y="473.3" font-family="Arial" font-size="18.75" fill="#4b5563">EQ 525 | IQ 238</text>
<circle cx="271.7" cy="496.2" r="14.2" fill="#2ca25f" fill-opacity="0.86" stroke="#20242a" stroke-width="1.1"/>
<circle cx="288.2" cy="496.2" r="11.5" fill="#2b6cb0" fill-opacity="0.86" stroke="#20242a" stroke-width="1.1"/>
<polygon points="279.9,489.2 286.9,496.2 279.9,503.2 272.9,496.2" fill="#d7301f" stroke="#ffffff" stroke-width="1.2"/>
<text x="321.9" y="541.2" font-family="Arial" font-size="22.5" font-weight="bold" fill="#20242a">BAT</text>
<text x="321.9" y="569.2" font-family="Arial" font-size="18.75" fill="#4b5563">EQ 400 | IQ 155</text>
<circle cx="591.6" cy="668.0" r="20.9" fill="#2ca25f" fill-opacity="0.86" stroke="#20242a" stroke-width="1.1"/>
<circle cx="617.7" cy="668.0" r="22.5" fill="#2b6cb0" fill-opacity="0.86" stroke="#20242a" stroke-width="1.1"/>
<polygon points="604.7,661.0 611.7,668.0 604.7,675.0 597.7,668.0" fill="#d7301f" stroke="#ffffff" stroke-width="1.2"/>
<text x="635.7" y="699.0" font-family="Arial" font-size="22.5" font-weight="bold" fill="#20242a">FID</text>
<text x="635.7" y="727.0" font-family="Arial" font-size="18.75" fill="#4b5563">EQ 1,484 | IQ 1,851</text>
<circle cx="488.5" cy="605.1" r="23.3" fill="#2ca25f" fill-opacity="0.86" stroke="#20242a" stroke-width="1.1"/>
<circle cx="516.0" cy="605.1" r="23.7" fill="#2b6cb0" fill-opacity="0.86" stroke="#20242a" stroke-width="1.1"/>
<polygon points="502.2,598.1 509.2,605.1 502.2,612.1 495.2,605.1" fill="#d7301f" stroke="#ffffff" stroke-width="1.2"/>
<text x="547.2" y="540.1" font-family="Arial" font-size="22.5" font-weight="bold" fill="#20242a">GLI</text>
<text x="547.2" y="568.1" font-family="Arial" font-size="18.75" fill="#4b5563">EQ 2,047 | IQ 2,151</text>
<circle cx="730.2" cy="350.7" r="23.6" fill="#2ca25f" fill-opacity="0.86" stroke="#20242a" stroke-width="1.1"/>
<circle cx="757.6" cy="350.7" r="23.6" fill="#2b6cb0" fill-opacity="0.86" stroke="#20242a" stroke-width="1.1"/>
<polygon points="743.9,343.7 750.9,350.7 743.9,357.7 736.9,350.7" fill="#d7301f" stroke="#ffffff" stroke-width="1.2"/>
<text x="788.9" y="285.7" font-family="Arial" font-size="22.5" font-weight="bold" fill="#20242a">KLU</text>
<text x="788.9" y="313.7" font-family="Arial" font-size="18.75" fill="#4b5563">EQ 2,130 | IQ 2,121</text>
<circle cx="207.3" cy="383.6" r="23.5" fill="#2ca25f" fill-opacity="0.86" stroke="#20242a" stroke-width="1.1"/>
<circle cx="235.8" cy="383.6" r="24.5" fill="#2b6cb0" fill-opacity="0.86" stroke="#20242a" stroke-width="1.1"/>
<polygon points="221.5,376.6 228.5,383.6 221.5,390.6 214.5,383.6" fill="#d7301f" stroke="#ffffff" stroke-width="1.2"/>
<text x="111.5" y="313.6" font-family="Arial" font-size="22.5" font-weight="bold" fill="#20242a">KNK</text>
<text x="111.5" y="341.6" font-family="Arial" font-size="18.75" fill="#4b5563">EQ 2,100 | IQ 2,365</text>
<circle cx="361.7" cy="225.9" r="18.4" fill="#2ca25f" fill-opacity="0.86" stroke="#20242a" stroke-width="1.1"/>
<circle cx="383.1" cy="225.9" r="14.8" fill="#2b6cb0" fill-opacity="0.86" stroke="#20242a" stroke-width="1.1"/>
<polygon points="372.4,218.9 379.4,225.9 372.4,232.9 365.4,225.9" fill="#d7301f" stroke="#ffffff" stroke-width="1.2"/>
<text x="250.4" y="277.9" font-family="Arial" font-size="22.5" font-weight="bold" fill="#20242a">M23K</text>
<text x="250.4" y="305.9" font-family="Arial" font-size="18.75" fill="#4b5563">EQ 1,006 | IQ 471</text>
<circle cx="233.2" cy="220.1" r="23.2" fill="#2ca25f" fill-opacity="0.86" stroke="#20242a" stroke-width="1.1"/>
<circle cx="262.2" cy="220.1" r="25.0" fill="#2b6cb0" fill-opacity="0.86" stroke="#20242a" stroke-width="1.1"/>
<polygon points="247.7,213.1 254.7,220.1 247.7,227.1 240.7,220.1" fill="#d7301f" stroke="#ffffff" stroke-width="1.2"/>
<text x="147.7" y="155.1" font-family="Arial" font-size="22.5" font-weight="bold" fill="#20242a">SAW</text>
<text x="147.7" y="183.1" font-family="Arial" font-size="18.75" fill="#4b5563">EQ 2,019 | IQ 2,496</text>
<circle cx="439.9" cy="209.7" r="23.3" fill="#2ca25f" fill-opacity="0.86" stroke="#20242a" stroke-width="1.1"/>
<circle cx="468.6" cy="209.7" r="24.7" fill="#2b6cb0" fill-opacity="0.86" stroke="#20242a" stroke-width="1.1"/>
<polygon points="454.2,202.7 461.2,209.7 454.2,216.7 447.2,209.7" fill="#d7301f" stroke="#ffffff" stroke-width="1.2"/>
<text x="499.2" y="144.7" font-family="Arial" font-size="22.5" font-weight="bold" fill="#20242a">SCM</text>
<text x="499.2" y="172.7" font-family="Arial" font-size="18.75" fill="#4b5563">EQ 2,038 | IQ 2,425</text>
<text x="1215.0" y="160.0" font-family="Arial" font-size="31.5" font-weight="bold" fill="#20242a">Legend</text>
<circle cx="1235" cy="204" r="18" fill="#2ca25f" fill-opacity="0.86" stroke="#20242a" stroke-width="1.1"/>
<text x="1267.0" y="210.0" font-family="Arial" font-size="24" fill="#20242a">Earthquake record</text>
<circle cx="1235" cy="263" r="18" fill="#2b6cb0" fill-opacity="0.86" stroke="#20242a" stroke-width="1.1"/>
<text x="1267.0" y="269.0" font-family="Arial" font-size="24" fill="#20242a">Icequake record</text>
<polygon points="1235,305 1243,313 1235,321 1227,313" fill="#d7301f" stroke="#20242a" stroke-width="0.8"/>
<text x="1267.0" y="319.0" font-family="Arial" font-size="24" fill="#20242a">Common receiver</text>
<text x="1215.0" y="368.0" font-family="Arial" font-size="22.5" font-weight="bold" fill="#20242a">Bubble area</text>
<text x="1215.0" y="391.0" font-family="Arial" font-size="21" fill="#4b5563">scales with record count</text>
<text x="1215.0" y="854.0" font-family="Arial" font-size="24" font-weight="bold" fill="#20242a">Totals</text>
<text x="1215.0" y="882.0" font-family="Arial" font-size="21" fill="#20242a">Earthquake: 13,749</text>
<text x="1215.0" y="906.0" font-family="Arial" font-size="21" fill="#20242a">Icequake: 14,273</text>
<text x="1215.0" y="934.0" font-family="Arial" font-size="21" font-weight="bold" fill="#20242a">All records: 28,022</text>
<text x="110.0" y="1048.0" font-family="Arial" font-size="19.5" fill="#4b5563">Receiver locations: data/stations.txt. Counts: data/station_class_counts.csv.</text>
</svg>